<svg width="1024" height="83" viewBox="0 0 1024 83" fill="none" xmlns="http://www.w3.org/2000/svg">
<path fill-rule="evenodd" clip-rule="evenodd" d="M1024 0.863647L981.333 11.511C938.667 22.1583 853.333 43.4529 768 44.9739C682.667 46.495 597.333 28.2424 512 19.1162C426.667 9.98991 341.333 9.98991 256 13.032C170.667 16.0741 85.3333 22.1583 42.6666 25.2003L0 28.2424V83H42.6666C85.3333 83 170.667 83 256 83C341.333 83 426.667 83 512 83C597.333 83 682.667 83 768 83C853.333 83 938.667 83 981.333 83H1024V0.863647Z" fill="#3F3D56"/>
</svg>
